#!OML:ASF F:\VICON\USERDATA\INSTALL\rory3\rory3.ASF
:FULLY-SPECIFIED
:DEGREES
2445
root 1.96592 15.5063 -3.08757 334.64 -67.0161 5.00462
lowerback 20.2406 1.5691 0.506676
upperback 11.514 1.51396 2.59227
thorax 1.086 0.417384 2.17774
lowerneck -18.38 7.1374 -6.33187
upperneck 17.7715 11.3644 0.660399
head 8.13967 4.98476 2.58015
rclavicle 2.62396e-014 1.59028e-015
rhumerus -26.9846 19.1956 -86.5311
rradius 83.4887
rwrist 27.8672
rhand -23.6378 9.82614
rfingers 7.12502
rthumb 2.82719 -20.1349
lclavicle 2.62396e-014 1.59028e-015
lhumerus -24.7418 -25.3907 93.1025
lradius 69.086
lwrist 5.20057
lhand -29.9805 11.7286
lfingers 7.12502
lthumb -3.29865 41.6829
rfemur -47.1449 -10.2084 13.1966
rtibia 56.1644
rfoot 9.44645 -20.2393
rtoes 16.9471
lfemur -43.3129 7.44218 -12.625
ltibia 59.639
lfoot 19.5763 -3.26813
ltoes -5.80117
2446
root 1.95648 15.5028 -3.07975 334.474 -67.0251 5.20464
lowerback 20.223 1.53652 0.459521
upperback 11.5511 1.45852 2.52463
thorax 1.13761 0.387956 2.14346
lowerneck -18.5543 7.19241 -6.13296
upperneck 17.862 11.4175 0.596399
head 8.21401 5.00972 2.54738
rclavicle 5.12864e-014 5.56597e-015
rhumerus -26.9909 19.3073 -86.6191
rradius 83.5872
rwrist 27.7971
rhand -23.6377 9.82542
rfingers 7.12502
rthumb 2.82724 -20.1356
lclavicle 5.12864e-014 5.56597e-015
lhumerus -24.6751 -25.3869 92.9275
lradius 69.1465
lwrist 5.1084
lhand -29.9709 12.0937
lfingers 7.12502
lthumb -3.28939 42.048
rfemur -47.2119 -10.1932 13.0761
rtibia 55.2533
rfoot 9.12966 -20.3277
rtoes 16.8893
lfemur -43.3702 7.26401 -12.6289
ltibia 58.7218
lfoot 19.2892 -2.92462
ltoes -6.41546
2447
root 1.94557 15.4987 -3.07609 334.319 -67.0495 5.35492
lowerback 20.2334 1.53004 0.43302
upperback 11.6054 1.43906 2.45441
thorax 1.19343 0.376968 2.08785
lowerneck -18.5287 7.18663 -5.99399
upperneck 17.6972 11.3791 0.516927
head 8.16868 5.00009 2.48946
rclavicle -5.80451e-014 3.49861e-014
rhumerus -26.9462 19.2706 -86.735
rradius 83.6302
rwrist 27.8338
rhand -23.7588 9.78381
rfingers 7.12502
rthumb 2.71034 -20.1787
lclavicle -5.80451e-014 3.49861e-014
lhumerus -24.5278 -25.5041 92.7149
lradius 69.1764
lwrist 5.12788
lhand -29.9587 12.2516
lfingers 7.12502
lthumb -3.2776 42.2062
rfemur -47.2481 -10.076 12.9567
rtibia 54.3923
rfoot 8.80153 -20.5177
rtoes 16.8899
lfemur -43.3819 7.14456 -12.6
ltibia 57.8164
lfoot 18.9454 -2.31886
ltoes -6.48585
2448
root 1.93336 15.4908 -3.07514 334.407 -67.0688 5.27398
lowerback 20.2434 1.52356 0.443237
upperback 11.6476 1.42737 2.4409
thorax 1.2358 0.370059 2.07023
lowerneck -18.4078 7.12281 -6.04158
upperneck 17.4605 11.2815 0.53168
head 8.06788 4.96498 2.47621
rclavicle -2.5842e-014 7.15625e-015
rhumerus -26.822 19.0883 -86.8226
rradius 83.6127
rwrist 27.9143
rhand -23.9466 9.73623
rfingers 7.12502
rthumb 2.5289 -20.2285
lclavicle -2.5842e-014 7.15625e-015
lhumerus -24.421 -25.7339 92.5784
lradius 69.2265
lwrist 5.31338
lhand -30.1708 12.3443
lfingers 7.12502
lthumb -3.48236 42.2956
rfemur -47.2988 -9.81896 12.8711
rtibia 53.5669
rfoot 8.26077 -20.7945
rtoes 17.2342
lfemur -43.4382 7.10124 -12.53
ltibia 56.9283
lfoot 18.7703 -1.86305
ltoes -6.6476
2449
root 1.92243 15.4853 -3.07009 334.372 -67.0982 5.32718
lowerback 20.2753 1.5243 0.37257
upperback 11.6751 1.41297 2.46358
thorax 1.24813 0.356697 2.13701
lowerneck -18.5537 7.09785 -6.11947
upperneck 17.5674 11.2659 0.62128
head 8.11918 4.9559 2.52585
rclavicle -5.36719e-015 -1.59028e-014
rhumerus -26.7436 19.0757 -86.8057
rradius 83.6628
rwrist 27.9011
rhand -23.9836 9.67496
rfingers 7.12502
rthumb 2.49322 -20.2902
lclavicle -5.36719e-015 -1.59028e-014
lhumerus -24.4323 -25.7425 92.6035
lradius 69.3132
lwrist 5.465
lhand -30.492 12.471
lfingers 7.12502
lthumb -3.79256 42.417
rfemur -47.3768 -9.63575 12.764
rtibia 52.7926
rfoot 8.00097 -20.8479
rtoes 16.9991
lfemur -43.4745 7.02357 -12.5194
ltibia 56.0545
lfoot 18.6916 -2.35777
ltoes -9.22765
2450
root 1.91224 15.4843 -3.06258 334.194 -67.1602 5.48071
lowerback 20.3668 1.56153 0.323565
upperback 11.6829 1.45188 2.50053
thorax 1.20763 0.371315 2.1959
lowerneck -18.6883 7.07016 -6.15771
upperneck 17.7717 11.2501 0.659375
head 8.20743 4.93889 2.55623
rclavicle 1.51076e-014 -7.15625e-015
rhumerus -26.7933 19.0813 -86.7167
rradius 83.7722
rwrist 27.7972
rhand -23.9246 9.67954
rfingers 7.12502
rthumb 2.55013 -20.285
lclavicle 1.51076e-014 -7.15625e-015
lhumerus -24.4858 -25.7073 92.7249
lradius 69.3609
lwrist 5.42473
lhand -30.6503 12.6741
lfingers 7.12502
lthumb -3.94544 42.6173
rfemur -47.398 -9.54452 12.6686
rtibia 52.0491
rfoot 7.78808 -20.8498
rtoes 16.8102
lfemur -43.4444 6.9211 -12.5154
ltibia 55.1997
lfoot 18.6393 -2.55839
ltoes -10.3047
2451
root 1.90399 15.4769 -3.06365 334.26 -67.1564 5.43421
lowerback 20.4592 1.59705 0.286503
upperback 11.6638 1.49415 2.54077
thorax 1.13706 0.389611 2.25053
lowerneck -18.6732 6.99819 -6.14761
upperneck 17.7572 11.151 0.641
head 8.2057 4.89131 2.53684
rclavicle 9.93923e-016 3.57812e-014
rhumerus -26.7977 18.965 -86.6814
rradius 83.7976
rwrist 27.6983
rhand -23.8782 9.7943
rfingers 7.12502
rthumb 2.59504 -20.1697
lclavicle 9.93923e-016 3.57812e-014
lhumerus -24.4904 -25.7769 92.79
lradius 69.3459
lwrist 5.40485
lhand -30.7514 12.5574
lfingers 7.12502
lthumb -4.04312 42.4988
rfemur -47.4819 -9.46711 12.6606
rtibia 51.3527
rfoot 7.48368 -20.9533
rtoes 16.4945
lfemur -43.5341 6.80344 -12.4371
ltibia 54.3618
lfoot 18.671 -2.05975
ltoes -8.97104
